<?xml version="1.0" encoding="UTF-8"?>
<!-- Generated by Pixelmator Pro 4.0 -->
<svg width="1080" height="1080" viewBox="0 0 1080 1080" xmlns="http://www.w3.org/2000/svg">
    <g id="awesome">
        <path id="Path" fill="#1c70f2" stroke="none" d="M 1026 517.029175 L 776.512817 288.16626 L 741.418335 326.420959 L 949.324219 517.029175 L 129.842041 517.029175 L 337.748016 326.2547 L 302.653503 288 L 53.166336 517.029175 L 53 517.029175 L 53 667.885742 C 53 736.078918 118.698288 791.63147 199.365814 791.63147 L 353.216248 791.63147 C 433.883759 791.63147 499.582062 736.078918 499.582062 667.885742 L 499.582062 568.756226 L 579.417969 568.756226 L 579.417969 667.885742 C 579.417969 736.078918 645.116211 791.63147 725.783752 791.63147 L 879.634216 791.63147 C 960.301697 791.63147 1026 736.078918 1026 667.885742 L 1026 517.029175 Z"/>
    </g>
    <path id="Awesome" fill="#ffffff" stroke="none" d="M 433.885986 691.859985 C 429.87265 691.859985 426.375336 691.085999 423.394012 689.537964 C 420.412659 687.98999 418.105011 685.796997 416.471008 682.958984 C 414.837006 680.120972 414.019989 676.781372 414.019989 672.940002 L 414.019989 661.76001 C 414.019989 657.91864 414.837006 654.578979 416.471008 651.740967 C 418.105011 648.902954 420.412659 646.710022 423.394012 645.161987 C 426.375336 643.614014 429.87265 642.839966 433.885986 642.839966 C 437.84201 642.839966 441.296326 643.614014 444.248993 645.161987 C 447.201691 646.710022 449.494995 648.874329 451.128998 651.655029 C 452.763 654.435669 453.579987 657.689331 453.579987 661.416016 L 453.579987 670.015991 L 424.339996 670.015991 L 424.339996 673.283997 C 424.339996 676.49469 425.171326 678.916992 426.834015 680.551025 C 428.496674 682.184998 430.847321 683.002014 433.885986 683.002014 C 436.122009 683.002014 438.02832 682.61499 439.605011 681.841003 C 441.181671 681.067017 442.113342 679.934692 442.399994 678.44397 L 453.063995 678.44397 C 452.318665 682.514648 450.197357 685.768311 446.700012 688.204956 C 443.202637 690.641724 438.931366 691.859985 433.885986 691.859985 Z M 424.339996 661.416016 L 424.339996 663.049988 L 443.26001 662.963989 L 443.26001 661.330017 C 443.26001 658.062012 442.457336 655.539307 440.85199 653.761963 C 439.246674 651.984619 436.924683 651.096008 433.885986 651.096008 C 430.732666 651.096008 428.353333 651.999023 426.747986 653.804993 C 425.14267 655.611023 424.339996 658.147949 424.339996 661.416016 Z M 360.441986 691 L 360.441986 643.700012 L 369.385986 643.700012 L 369.385986 650.580017 L 369.644012 650.580017 C 369.81601 648.286621 370.618652 646.42334 372.052002 644.98999 C 373.485352 643.556641 375.291321 642.839966 377.470001 642.839966 C 379.591339 642.839966 381.397339 643.513672 382.888 644.860962 C 384.378662 646.208374 385.381989 648.028687 385.89801 650.322021 C 386.127319 648.028687 386.972992 646.208374 388.434998 644.860962 C 389.897003 643.513672 391.746002 642.839966 393.981995 642.839966 C 396.848694 642.839966 399.227997 643.97229 401.119995 646.237 C 403.012024 648.501709 403.958008 651.411316 403.958008 654.966003 L 403.958008 691 L 394.497986 691 L 394.497986 655.73999 C 394.497986 654.192017 394.139679 652.973633 393.423004 652.084961 C 392.706329 651.196289 391.68866 650.752014 390.369995 650.752014 C 387.789978 650.752014 386.5 652.414673 386.5 655.73999 L 386.5 691 L 377.899994 691 L 377.899994 655.73999 C 377.899994 654.192017 377.570343 652.973633 376.911011 652.084961 C 376.251678 651.196289 375.291351 650.752014 374.029999 650.752014 C 371.277985 650.752014 369.902008 652.414673 369.902008 655.73999 L 369.902008 691 Z M 330.600006 691.773987 C 324.522644 691.773987 319.706665 690.068359 316.151978 686.656982 C 312.597321 683.245667 310.820007 678.644653 310.820007 672.854004 L 310.820007 661.846008 C 310.820007 655.997986 312.597321 651.38269 316.151978 648 C 319.706665 644.61731 324.522644 642.926025 330.600006 642.926025 C 336.677368 642.926025 341.493317 644.61731 345.048004 648 C 348.602692 651.38269 350.380005 655.997986 350.380005 661.846008 L 350.380005 672.854004 C 350.380005 678.644653 348.602692 683.245667 345.048004 686.656982 C 341.493317 690.068359 336.677368 691.773987 330.600006 691.773987 Z M 330.600006 682.400024 C 333.466675 682.400024 335.688324 681.611694 337.265015 680.035034 C 338.841675 678.458313 339.630005 676.179321 339.630005 673.197998 L 339.630005 661.502014 C 339.630005 658.52063 338.841675 656.241699 337.265015 654.665039 C 335.688324 653.088318 333.466675 652.299988 330.600006 652.299988 C 327.733337 652.299988 325.511658 653.088318 323.934998 654.665039 C 322.358337 656.241699 321.570007 658.52063 321.570007 661.502014 L 321.570007 673.197998 C 321.570007 676.179321 322.358337 678.458313 323.934998 680.035034 C 325.511658 681.611694 327.733337 682.400024 330.600006 682.400024 Z M 277.022003 691.773987 C 271.40332 691.773987 266.960022 690.498352 263.692017 687.947021 C 260.423981 685.39563 258.789978 681.941345 258.789978 677.583984 L 269.367981 677.583984 C 269.367981 679.418701 270.041656 680.823364 271.389008 681.797974 C 272.736328 682.772705 274.613983 683.26001 277.022003 683.26001 L 280.806 683.26001 C 283.386017 683.26001 285.378326 682.772705 286.78302 681.797974 C 288.187683 680.823364 288.890015 679.418701 288.890015 677.583984 C 288.890015 675.864014 288.402649 674.588379 287.427979 673.756958 C 286.453308 672.925659 284.962677 672.366699 282.955994 672.080017 L 271.174011 670.531982 C 267.389984 670.015991 264.480347 668.554016 262.445007 666.145996 C 260.409668 663.737976 259.391998 660.613342 259.391998 656.771973 C 259.391998 652.299988 260.882629 648.874329 263.864014 646.494995 C 266.845337 644.115662 271.145325 642.926025 276.764008 642.926025 L 280.720001 642.926025 C 285.99469 642.926025 290.237305 644.130005 293.447998 646.537964 C 296.658691 648.946045 298.32135 652.156616 298.436005 656.169983 L 287.772003 656.169983 C 287.714661 654.679321 287.055359 653.489685 285.794006 652.601013 C 284.532654 651.712341 282.841339 651.268005 280.720001 651.268005 L 276.764008 651.268005 C 274.470642 651.268005 272.721985 651.740967 271.518005 652.687012 C 270.313995 653.632996 269.712006 654.908691 269.712006 656.514038 C 269.712006 657.947327 270.156311 659.007996 271.044983 659.695984 C 271.933655 660.384033 273.237976 660.813965 274.958008 660.985962 L 286.052002 662.533997 C 290.409363 663.049988 293.69165 664.583618 295.898987 667.13501 C 298.106323 669.68634 299.210022 673.111938 299.210022 677.411987 C 299.210022 681.998657 297.647705 685.539001 294.52301 688.032959 C 291.398315 690.526978 286.82605 691.773987 280.806 691.773987 Z M 227.485992 691.859985 C 223.472641 691.859985 219.975342 691.085999 216.994003 689.537964 C 214.01265 687.98999 211.705017 685.796997 210.070999 682.958984 C 208.436981 680.120972 207.619995 676.781372 207.619995 672.940002 L 207.619995 661.76001 C 207.619995 657.91864 208.436981 654.578979 210.070999 651.740967 C 211.705017 648.902954 214.01265 646.710022 216.994003 645.161987 C 219.975342 643.614014 223.472641 642.839966 227.485992 642.839966 C 231.442017 642.839966 234.896317 643.614014 237.848999 645.161987 C 240.801682 646.710022 243.094986 648.874329 244.729004 651.655029 C 246.363007 654.435669 247.179993 657.689331 247.179993 661.416016 L 247.179993 670.015991 L 217.940002 670.015991 L 217.940002 673.283997 C 217.940002 676.49469 218.771332 678.916992 220.434006 680.551025 C 222.09668 682.184998 224.447311 683.002014 227.485992 683.002014 C 229.722015 683.002014 231.628326 682.61499 233.205002 681.841003 C 234.781677 681.067017 235.713333 679.934692 236 678.44397 L 246.664001 678.44397 C 245.918655 682.514648 243.797348 685.768311 240.300003 688.204956 C 236.802643 690.641724 232.531357 691.859985 227.485992 691.859985 Z M 217.940002 661.416016 L 217.940002 663.049988 L 236.860001 662.963989 L 236.860001 661.330017 C 236.860001 658.062012 236.057343 655.539307 234.451996 653.761963 C 232.846664 651.984619 230.524689 651.096008 227.485992 651.096008 C 224.332657 651.096008 221.953339 651.999023 220.348007 653.804993 C 218.742661 655.611023 217.940002 658.147949 217.940002 661.416016 Z M 158.772003 691 L 151.376007 643.700012 L 159.889999 643.700012 L 164.104004 672.682007 C 164.333344 674.459351 164.533997 676.380005 164.705994 678.44397 C 164.877991 680.507996 165.021332 682.228027 165.136002 683.604004 C 165.193329 682.228027 165.307999 680.507996 165.480011 678.44397 C 165.652008 676.380005 165.910004 674.459351 166.253998 672.682007 L 171.414001 643.700012 L 180.358002 643.700012 L 185.346008 672.682007 C 185.690002 674.459351 185.962341 676.394287 186.162994 678.487 C 186.363678 680.579712 186.521332 682.313965 186.636002 683.690002 C 186.750671 682.313965 186.879669 680.579712 187.02301 678.487 C 187.166336 676.394287 187.381332 674.459351 187.667999 672.682007 L 191.968002 643.700012 L 200.223999 643.700012 L 192.656006 691 L 181.561996 691 L 177.089996 661.846008 C 176.803329 660.240662 176.545334 658.391663 176.31601 656.299011 C 176.08667 654.206299 175.914673 652.500671 175.800003 651.182007 C 175.742676 652.500671 175.570679 654.206299 175.283997 656.299011 C 174.99733 658.391663 174.739334 660.240662 174.51001 661.846008 L 169.865997 691 Z M 101.410004 691 L 117.234001 628.219971 L 131.080002 628.219971 L 146.990005 691 L 135.981995 691 L 132.541992 675.778015 L 115.858002 675.778015 L 112.417999 691 Z M 117.835999 667.005981 L 130.563995 667.005981 L 126.779999 650.150024 C 126.14933 647.340637 125.604668 644.803711 125.145996 642.539001 C 124.687332 640.274292 124.372002 638.625977 124.199997 637.593994 C 124.028 638.625977 123.712669 640.274292 123.253998 642.539001 C 122.795334 644.803711 122.250671 647.312012 121.620003 650.063965 Z"/>
    <path id="UC" fill="#ffffff" stroke="none" d="M 732.488037 691.859985 C 728.417297 691.859985 724.891357 691.100342 721.910034 689.580994 C 718.92865 688.061646 716.620972 685.911682 714.987 683.130981 C 713.353027 680.350342 712.536011 677.067993 712.536011 673.283997 L 712.536011 645.936035 C 712.536011 642.151978 713.353027 638.86969 714.987 636.088989 C 716.620972 633.30835 718.92865 631.158325 721.910034 629.639038 C 724.891357 628.119629 728.417297 627.359985 732.488037 627.359985 C 736.501343 627.359985 739.998657 628.119629 742.97998 629.639038 C 745.961365 631.158325 748.283325 633.30835 749.945984 636.088989 C 751.608643 638.86969 752.440002 642.151978 752.440002 645.936035 L 741.604004 645.936035 C 741.604004 643.011963 740.815674 640.761658 739.239014 639.184998 C 737.662354 637.608337 735.411987 636.820007 732.488037 636.820007 C 729.563965 636.820007 727.299316 637.608337 725.69397 639.184998 C 724.088623 640.761658 723.286011 643.011963 723.286011 645.936035 L 723.286011 673.283997 C 723.286011 676.208008 724.088623 678.458313 725.69397 680.035034 C 727.299316 681.611694 729.563965 682.400024 732.488037 682.400024 C 735.411987 682.400024 737.662354 681.611694 739.239014 680.035034 C 740.815674 678.458313 741.604004 676.208008 741.604004 673.283997 L 752.440002 673.283997 C 752.440002 677.067993 751.608643 680.350342 749.945984 683.130981 C 748.283325 685.911682 745.961365 688.061646 742.97998 689.580994 C 739.998657 691.100342 736.501343 691.859985 732.488037 691.859985 Z M 680.200012 691.859985 C 674.065308 691.859985 669.263672 690.182983 665.794983 686.828979 C 662.326294 683.474976 660.59198 678.90271 660.59198 673.112 L 660.59198 628.219971 L 671.427979 628.219971 L 671.427979 673.026001 C 671.427979 676.007324 672.17334 678.329346 673.664001 679.992004 C 675.154663 681.654663 677.333313 682.485962 680.200012 682.485962 C 683.009338 682.485962 685.173645 681.654663 686.692993 679.992004 C 688.212341 678.329346 688.971985 676.007324 688.971985 673.026001 L 688.971985 628.219971 L 699.807983 628.219971 L 699.807983 673.112 C 699.807983 678.90271 698.088013 683.474976 694.64801 686.828979 C 691.208008 690.182983 686.392029 691.859985 680.200012 691.859985 Z"/>
    <g id="osuc">
        <path id="path1" fill="#ffffff" stroke="none" d="M 989.432739 666.375732 C 989.432739 708.694092 955.126831 743 912.808472 743 L 912.808472 666.375732 L 989.432739 666.375732 Z"/>
        <path id="path2" fill="#ffffff" stroke="none" d="M 989.432739 558 L 989.432739 634.624146 C 947.114441 634.624146 912.808472 600.318115 912.808472 558 L 989.432739 558 Z"/>
        <path id="path3" fill="#ffffff" stroke="none" d="M 881.056824 558 L 881.056824 634.624146 L 804.432739 634.624146 C 804.432739 592.305786 838.738525 558 881.056824 558 Z"/>
        <path id="path4" fill="#ffffff" stroke="none" d="M 804.432739 666.375732 C 846.750916 666.375732 881.056824 700.681641 881.056824 743 L 804.432739 743 L 804.432739 666.375732 Z"/>
        <path id="path5" fill="#ffffff" stroke="none" d="M 908.168579 639.283447 L 908.168579 661.716309 L 885.697205 661.716309 L 885.697205 639.283447 L 908.168579 639.283447 Z"/>
        <path id="path6" fill="#ffffff" stroke="none" d="M 869.856689 666.376221 C 876.05127 666.376221 881.09259 671.397583 881.09259 677.592651 C 881.09259 683.787231 876.05127 688.808594 869.856689 688.808594 C 863.662109 688.808594 858.621216 683.787231 858.621216 677.592651 C 858.621216 671.397583 863.662109 666.376221 869.856689 666.376221 Z"/>
        <path id="path7" fill="#ffffff" stroke="none" d="M 924.043945 612.187988 C 930.238953 612.187988 935.279846 617.209839 935.279846 623.404419 C 935.279846 629.598999 930.238953 634.62085 924.043945 634.62085 C 917.849365 634.62085 912.808472 629.598999 912.808472 623.404419 C 912.808472 617.209839 917.849365 612.187988 924.043945 612.187988 Z"/>
    </g>
</svg>
